<svg xmlns="http://www.w3.org/2000/svg" xmlns:xlink="http://www.w3.org/1999/xlink" viewBox="0 0 544 544">
<!-- A reorganized BEAM logo, in pure SVG (no CSS) and with the strict Beam colors -->
  <defs>
    <linearGradient id="Grad1" x1="0%" y1="0%" x2="55%" y2="0%">
      <stop offset="0" stop-color="#fff" stop-opacity="0"/>
      <stop offset="1" stop-color="#fff"/>
    </linearGradient>
    <linearGradient id="Grad2" x1="100%" y1="0%" x2="50%" y2="0%">
      <stop offset="0" stop-color="#9d6eff" stop-opacity="0"/>
      <stop offset="1" stop-color="#9d6eff"/>
    </linearGradient>
    <linearGradient id="Grad3" x1="100%" y1="0%" x2="40%" y2="0%">
      <stop offset="0" stop-color="#ab37e6" stop-opacity="0"/>
      <stop offset="1" stop-color="#ab37e6"/>
    </linearGradient>
    <linearGradient id="Grad4" x1="100%" y1="0%" x2="35%" y2="0%">
      <stop offset="0" stop-color="#ff52ff" stop-opacity="0"/>
      <stop offset="1" stop-color="#ff52ff"/>
    </linearGradient>
  </defs>
  <title>Beam logo</title>
  <g id="Logo_in_circle">
    <circle id="Circle" fill="#0b1624" cx="272" cy="272" r="272"/>
    <g id="Logo">
      <path id="Triangle_outer_left" fill="#24c1ff" d="M272.25,327.21h-77.53l77.5-135v-81.56l-151.94,260.19h151.94z"/>
      <path id="Triangle_outer_right" fill="#0b76ff" d="M272.25,327.21h77.53l-77.5-135v-81.56l151.94,260.19h-151.94z"/>
      <path id="Triangle_inner_left" fill="#39fff2" d="M272.25,226.3v87.27l-47.48,0.1z"/>
      <path id="Triangle_inner_right" fill="#00e2c2" d="M272.25,226.3v87.27l47.48,0.1z"/>
      <path id="Left_ray" fill="url(#Grad1)" d="M86.13,191.81l186.12,86.02v9l-186.12-40.73v-54.29z"/>
      <path id="Lower_right_ray" fill="url(#Grad2)" d="M458.75,274.33l-186.5,12.5v-3l186.5-45.33v35.83z"/>
      <path id="Middle_right_ray" fill="url(#Grad3)" d="M458.75,202.67l-186.5,78.16v3l186.5-45.33v-35.83z"/>
      <path id="Upper_right_ray" fill="url(#Grad4)" d="M458.75,166.83l-186.5,111v3l186.5-78.16v-35.84z"/>
      <path id="BEAM_text" fill="#25c1ff" d="
        M164,434.94v-31.74c1.81-0.09,6.33-0.27,9.87-0.27c7.78,0,10.94,3.51,10.94,7.93c0,4.2-2.14,6.1-3.72,7.12c2.37,0.86,4.65,3.19,4.65,7.29c0,6.71-5.3,9.85-12.38,9.85c-3.12,0-7.45-0.09-9.36-0.18zm7.45-12.81v6c0.83,0.24,1.4,0.27,2.51,0.27c2.89,0,4.33-1.23,4.33-3.37s-1.53-2.9-3.96-2.9zm0-12.18v5.79h2.47c1.9,0,3.44-0.77,3.44-3.1s-1.77-2.87-3.58-2.87c-0.64,0-1.55,0.04-2.33,0.18z
        M223.78,434.94v-31.92h19.32v6.89h-11.87v5.61h10.48v6.84h-10.48v5.79h12.34v6.76z
        M277.41,434.94l13.59-31.92h6.66l13.52,31.89h-8l-2.7-6.7h-12.9l-2.7,6.7zm12.99-13.57h7.32l-3.64-9z
        M346.41,434.94v-31.89h7.5l10.09,13.45l9.5-13.45h7v31.89h-7.45v-20.31 l-9.05,12.45h-1.1l-9-12.31v20.17z"/>
    </g>
  </g>
</svg>
